<?xml version="1.0" encoding="iso-8859-1"?>
<!DOCTYPE svg PUBLIC "-//W3C//DTD SVG 1.1 Basic//EN" "http://www.w3.org/Graphics/SVG/1.1/DTD/svg11-basic.dtd">
<svg version="1.1" baseProfile="basic"
   xmlns="http://www.w3.org/2000/svg" xmlns:xlink="http://www.w3.org/1999/xlink" x="0px" y="0px" width="64px" height="64px"
   viewBox="0 0 64 64" xml:space="preserve">
  <path transform="matrix(0.064,0,0,0.064,5,0)" stroke="none" style="fill:#0866CC" d="M 0 0 L 0 1000 L 115 884 L 213 981 L 310 884 L 408 981 L 505 884 L 603 981 L 700 884 L 816 1000 L 816 0 L 0 0 z M 780 912 L 700 833 L 603 930 L 505 833 L 408 930 L 310 833 L 213 930 L 115 833 L 36 912 L 36 36 L 780 36 L 780 912 z M 143 586 L 522 586 L 522 622 L 143 622 L 143 586 M 143 496 L 522 496 L 522 532 L 143 532 L 143 496 M 143 405 L 522 405 L 522 441 L 143 441 L 143 405 M 143 315 L 522 315 L 522 351 L 143 351 L 143 315 M 576 586 L 673 586 L 673 622 L 576 622 L 576 586 M 576 496 L 673 496 L 673 532 L 576 532 L 576 496 M 576 405 L 673 405 L 673 441 L 576 441 L 576 405 M 576 315 L 673 315 L 673 351 L 576 351 L 576 315 M 143 170 L 673 170 L 673 206 L 143 206 L 143 170"/>
</svg>